<svg width="16" height="16" viewBox="0 0 16 16" fill="none" xmlns="http://www.w3.org/2000/svg">
    <path d="M6.5 6C6.5 6.93191 5.86262 7.71496 5 7.93699L5 13.5C5 13.7761 4.77614 14 4.5 14C4.25454 14 4.05039 13.8231 4.00806 13.5899L4 13.5L3.999 7.93673C3.1369 7.71435 2.5 6.93155 2.5 6C2.5 5.06845 3.1369 4.28565 3.999 4.06327L4 2.5C4 2.22386 4.22386 2 4.5 2C4.74546 2 4.94961 2.17688 4.99194 2.41012L5 2.5L5 4.06301C5.86262 4.28504 6.5 5.06809 6.5 6ZM13.5 10C13.5 10.9319 12.8626 11.715 12 11.937L12 13.5C12 13.7761 11.7761 14 11.5 14C11.2545 14 11.0504 13.8231 11.0081 13.5899L11 13.5L11 11.9367C10.1374 11.7144 9.5 10.9316 9.5 10C9.5 9.06845 10.1374 8.28565 11 8.06327L11 2.5C11 2.22386 11.2239 2 11.5 2C11.7455 2 11.9496 2.17688 11.9919 2.41012L12 2.5L12 8.06301C12.8626 8.28504 13.5 9.06809 13.5 10Z" fill="#212121"/>
</svg>
