<svg xmlns="http://www.w3.org/2000/svg" viewBox="0 0 16 16"><path d="M2,4.25A1.75,1.75,0,0,1,3.75,2.5H4.5a.5.5,0,0,1,0,1H3.75A.75.75,0,0,0,3,4.25V5A.5.5,0,0,1,2,5ZM6,3a.5.5,0,0,1,.5-.5h3a.5.5,0,0,1,0,1h-3A.5.5,0,0,1,6,3Zm6.25-.5A1.75,1.75,0,0,1,14,4.25V5a.5.5,0,0,1-1,0V4.25a.75.75,0,0,0-.75-.75H11.5a.5.5,0,0,1,0-1ZM6,13a.5.5,0,0,0,.5.5h3a.5.5,0,0,0,0-1h-3A.5.5,0,0,0,6,13Zm-2.25.5A1.75,1.75,0,0,1,2,11.75V11a.5.5,0,0,1,1,0v.75a.75.75,0,0,0,.75.75H4.5a.5.5,0,0,1,0,1ZM14,11.75a1.75,1.75,0,0,1-1.75,1.75H11.5a.5.5,0,0,1,0-1h.75a.75.75,0,0,0,.75-.75V11a.5.5,0,0,1,1,0ZM2.5,6.5A.5.5,0,0,0,2,7V9A.5.5,0,0,0,3,9V7A.5.5,0,0,0,2.5,6.5ZM13,7a.5.5,0,0,1,1,0V9a.5.5,0,0,1-1,0Z" style="fill:#212121"/></svg>