<svg xmlns="http://www.w3.org/2000/svg" width="16" height="16" viewBox="0 0 16 16"><path d="M11.5,7A4.5,4.5,0,1,0,16,11.5,4.5,4.5,0,0,0,11.5,7Zm-1.1465,5.6464a.5.5,0,1,1-.7071.7072l-1.5-1.5a.5.5,0,0,1,0-.7072l1.5-1.5a.5.5,0,1,1,.7071.7072L9.2071,11.5Zm3,.7072a.5.5,0,0,1-.7071-.7072L13.7928,11.5l-1.1464-1.1464a.5.5,0,0,1,.7071-.7072l1.5,1.5a.5.5,0,0,1,0,.7072Z" style="fill:#212121"/><path d="M1,4.5A2.5,2.5,0,0,1,3.5,2h7A2.5,2.5,0,0,1,13,4.5V6.207a5.4888,5.4888,0,0,0-1-.1846V4.5A1.5,1.5,0,0,0,10.5,3h-3L6,5.5V11h.0224Q6,11.2471,6,11.5t.0224.5H3.5A2.5,2.5,0,0,1,1,9.5ZM3.5,3h0A1.5,1.5,0,0,0,2,4.5v5A1.5,1.5,0,0,0,3.5,11H5V5.5Z" style="fill:#212121"/></svg>