<svg xmlns="http://www.w3.org/2000/svg" xmlns:xlink="http://www.w3.org/1999/xlink" viewBox="0 0 48 48"><path d="M10.5,8.2c0-1,0.8-1.7,1.8-1.8H24v8.8c0,2.1,1.7,3.8,3.8,3.8l0,0h9.8v20.8c0,1-0.8,1.8-1.8,1.8H24.3c-0.5,0.9-1.2,1.7-1.9,2.5h13.4c2.3,0,4.2-1.9,4.2-4.2V18.4c0-0.6-0.2-1.2-0.7-1.6L27.2,4.7c-0.4-0.4-1-0.7-1.6-0.7H12.2C9.9,4,8,5.9,8,8.2V23c0.8-0.3,1.6-0.6,2.5-0.8V8.2z M35.5,16.5h-7.7c-0.7,0-1.2-0.6-1.2-1.2V7.5L35.5,16.5z M24,35c0,6.1-4.9,11-11,11S2,41.1,2,35s4.9-11,11-11S24,28.9,24,35z M14,29c0-0.6-0.4-1-1-1s-1,0.4-1,1v8c0,0.6,0.4,1,1,1s1-0.4,1-1V29zM13,42.2c0.7,0,1.2-0.6,1.2-1.2s-0.6-1.2-1.2-1.2s-1.2,0.6-1.2,1.2S12.3,42.2,13,42.2z"/></svg>
