<svg xmlns="http://www.w3.org/2000/svg" viewBox="0 0 16 16"><path d="M11.012 8.353c-.05 0-.102-.006-.152-.009a.5.5 0 0 1-.36.156H6a.5.5 0 0 1 0-1h2.775a3.4 3.4 0 0 1-.395-.401l-.413-.51-.964.557A2.245 2.245 0 0 1 3.64 5H3.5A2.5 2.5 0 0 0 1 7.5v4A2.5 2.5 0 0 0 3.5 14h7a2.5 2.5 0 0 0 2.5-2.5V7.687a3.34 3.34 0 0 1-1.988.665M3.75 11.75A.75.75 0 1 1 4.5 11a.75.75 0 0 1-.75.75m0-3A.75.75 0 1 1 4.5 8a.75.75 0 0 1-.75.75m6.75 2.75H6a.5.5 0 0 1 0-1h4.5a.5.5 0 0 1 0 1" style="fill:#212121"/><path d="M15 1.357h-.5a.5.5 0 0 0-.5.5v.054a1.73 1.73 0 0 0-1.101-.795A2.7 2.7 0 0 0 12.162 1l-.998-.002a2.2 2.2 0 0 0-.95.253c-.3.18-2.185 1.262-2.185 1.262L5.253 4.114a1.25 1.25 0 0 0 1.25 2.166l1.705-.985.95 1.175a2.375 2.375 0 0 0 3.34.354q.08-.066.156-.138L14 5.24c-.002-.559 0-2.995 0-3.298v3.415a.5.5 0 0 0 .5.5h.5a.5.5 0 0 0 .5-.5v-3.5a.5.5 0 0 0-.5-.5" style="fill:#212121"/></svg>